<?xml version="1.0"?>
<svg xmlns="http://www.w3.org/2000/svg" xmlns:xlink="http://www.w3.org/1999/xlink" version="1.1" id="Capa_1" x="0px" y="0px" viewBox="0 0 412.735 412.735" style="enable-background:new 0 0 412.735 412.735;" xml:space="preserve" width="512px" height="512px" class="hovered-paths"><g><g>
	<path style="fill:#437A99" d="M190.694,208.457v178.155c0,8.882,6.792,15.673,15.673,15.673s15.673-6.792,15.673-15.673V208.457   c-5.225,1.045-10.449,2.09-15.673,2.09S195.918,210.024,190.694,208.457z" data-original="#3A2C51" class="hovered-path" data-old_color="#3A2C51"/>
	<path style="fill:#437A99" d="M222.041,96.653V26.122c0-8.882-6.792-15.673-15.673-15.673s-15.673,6.792-15.673,15.673v70.531   c5.224-1.045,10.449-2.09,15.673-2.09S216.816,95.086,222.041,96.653z" data-original="#3A2C51" class="hovered-path" data-old_color="#3A2C51"/>
	<path style="fill:#437A99" d="M333.845,316.082v70.531c0,8.882,6.792,15.673,15.673,15.673s15.673-6.792,15.673-15.673v-70.531   c-5.224,1.045-10.449,2.09-15.673,2.09S339.069,317.649,333.845,316.082z" data-original="#3A2C51" class="hovered-path" data-old_color="#3A2C51"/>
	<path style="fill:#437A99" d="M365.192,204.278V26.122c0-8.882-6.792-15.673-15.673-15.673s-15.673,6.792-15.673,15.673v178.155   c5.224-1.045,10.449-2.09,15.673-2.09C354.743,202.188,359.967,202.71,365.192,204.278z" data-original="#3A2C51" class="hovered-path" data-old_color="#3A2C51"/>
	<path style="fill:#437A99" d="M47.543,316.082v70.531c0,8.882,6.792,15.673,15.673,15.673s15.673-6.792,15.673-15.673v-70.531   c-5.224,1.045-10.449,2.09-15.673,2.09S52.767,317.649,47.543,316.082z" data-original="#3A2C51" class="hovered-path" data-old_color="#3A2C51"/>
	<path style="fill:#437A99" d="M78.89,204.278V26.122c0-8.882-6.792-15.673-15.673-15.673s-15.673,6.792-15.673,15.673v178.155   c5.224-1.045,10.449-2.09,15.673-2.09C68.441,202.188,73.665,202.71,78.89,204.278z" data-original="#3A2C51" class="hovered-path" data-old_color="#3A2C51"/>
</g><g>
	<path style="fill:#437A99" d="M222.041,91.429c-5.225-1.045-10.449-2.09-15.673-2.09s-10.449,0.522-15.673,2.09   c-27.167,6.792-47.543,31.869-47.543,61.127s20.376,54.335,47.543,61.127c5.224,1.045,10.449,2.09,15.673,2.09   s10.449-0.522,15.673-2.09c27.167-6.792,47.543-31.869,47.543-61.127S249.208,98.22,222.041,91.429z" data-original="#4DCFE0" class="active-path" data-old_color="#4DCFE0"/>
	<path style="fill:#437A99" d="M412.735,260.18c0-29.78-20.376-54.335-47.543-61.127c-5.224-1.045-10.449-2.09-15.673-2.09   s-10.449,0.522-15.673,2.09c-27.167,6.792-47.543,31.869-47.543,61.127c0,29.257,20.376,54.335,47.543,61.127   c5.224,1.045,10.449,2.09,15.673,2.09s10.449-0.522,15.673-2.09C392.359,314.514,412.735,289.959,412.735,260.18z" data-original="#4DCFE0" class="active-path" data-old_color="#4DCFE0"/>
	<path style="fill:#437A99" d="M78.89,199.053c-5.224-1.045-10.449-2.09-15.673-2.09s-10.449,0.522-15.673,2.09   C20.376,205.845,0,230.922,0,260.18c0,29.257,20.376,54.335,47.543,61.127c5.224,1.045,10.449,2.09,15.673,2.09   s10.449-0.522,15.673-2.09c27.167-6.792,47.543-31.869,47.543-61.127C126.433,230.922,106.057,205.845,78.89,199.053z" data-original="#4DCFE0" class="active-path" data-old_color="#4DCFE0"/>
</g></g> </svg>
